HIERARCHY
ROOT Hips
{
 OFFSET 0.000000 0.000000 0.000000
 CHANNELS 6 Xposition Yposition Zposition Yrotation Xrotation Zrotation
 JOINT Chest
 {
  OFFSET 0.000000 9.585900 0.002600
  CHANNELS 3 Yrotation Xrotation Zrotation
  JOINT Chest2
  {
   OFFSET 0.000000 9.601200 -0.005300
   CHANNELS 3 Yrotation Xrotation Zrotation
   JOINT Chest3
   {
    OFFSET 0.000000 9.561800 0.000000
    CHANNELS 3 Yrotation Xrotation Zrotation
    JOINT Chest4
    {
     OFFSET 0.000000 9.552100 0.000000
     CHANNELS 3 Yrotation Xrotation Zrotation
     JOINT Neck
     {
      OFFSET 0.000000 14.453000 0.000000
      CHANNELS 3 Yrotation Xrotation Zrotation
      JOINT Head
      {
       OFFSET 0.000000 8.936500 -0.011300
       CHANNELS 3 Yrotation Xrotation Zrotation
       End Site
       {
        OFFSET 0.000000 17.073600 -0.006000
       }
      }
     }
     JOINT RightCollar
     {
      OFFSET -2.921100 9.558500 0.000000
      CHANNELS 3 Yrotation Xrotation Zrotation
      JOINT RightShoulder
      {
       OFFSET -13.519700 0.000000 0.000000
       CHANNELS 3 Yrotation Xrotation Zrotation
       JOINT RightElbow
       {
        OFFSET 0.000000 -29.696600 0.000000
        CHANNELS 3 Yrotation Xrotation Zrotation
        JOINT RightWrist
        {
         OFFSET 0.000000 -24.004700 0.000000
         CHANNELS 3 Yrotation Xrotation Zrotation
         End Site
         {
          OFFSET 0.000000 -17.728500 0.000000
         }
        }
       }
      }
     }
     JOINT LeftCollar
     {
      OFFSET 2.921100 9.558500 0.000000
      CHANNELS 3 Yrotation Xrotation Zrotation
      JOINT LeftShoulder
      {
       OFFSET 13.519700 0.000000 0.000000
       CHANNELS 3 Yrotation Xrotation Zrotation
       JOINT LeftElbow
       {
        OFFSET 0.000000 -29.696600 0.000000
        CHANNELS 3 Yrotation Xrotation Zrotation
        JOINT LeftWrist
        {
         OFFSET 0.000000 -24.004700 0.000000
         CHANNELS 3 Yrotation Xrotation Zrotation
         End Site
         {
          OFFSET 0.000000 -17.728500 0.000000
         }
        }
       }
      }
     }
    }
   }
  }
 }
 JOINT RightHip
 {
  OFFSET -7.771700 -0.012900 -0.001300
  CHANNELS 3 Yrotation Xrotation Zrotation
  JOINT RightKnee
  {
   OFFSET 0.000000 -40.869800 0.001200
   CHANNELS 3 Yrotation Xrotation Zrotation
   JOINT RightAnkle
   {
    OFFSET 0.000000 -39.717900 0.002100
    CHANNELS 3 Yrotation Xrotation Zrotation
    JOINT RightToe
    {
     OFFSET 0.000000 -4.965400 11.033500
     CHANNELS 3 Yrotation Xrotation Zrotation
     End Site
     {
      OFFSET 0.000000 -1.423100 5.872300
     }
    }
   }
  }
 }
 JOINT LeftHip
 {
  OFFSET 7.771700 -0.012900 -0.001300
  CHANNELS 3 Yrotation Xrotation Zrotation
  JOINT LeftKnee
  {
   OFFSET 0.000000 -40.869800 0.001200
   CHANNELS 3 Yrotation Xrotation Zrotation
   JOINT LeftAnkle
   {
    OFFSET 0.000000 -39.717900 0.002100
    CHANNELS 3 Yrotation Xrotation Zrotation
    JOINT LeftToe
    {
     OFFSET 0.000000 -4.965400 11.033500
     CHANNELS 3 Yrotation Xrotation Zrotation
     End Site
     {
      OFFSET 0.000000 -1.423100 5.872300
     }
    }
   }
  }
 }
}
MOTION
Frames: 13
Frame Time: 0.008333
0.000000 85.388000 0.000000 0.000000 -5.767877 0.000000 0.000000 11.653817 0.000000 0.000000 -5.885947 0.000000 0.000000 -0.000000 0.000000 0.000000 -0.000000 0.000000 0.000000 12.528835 0.000000 0.000000 0.711642 0.000000 0.000000 -0.000000 0.000000 0.000000 0.000000 -90.000000 0.000000 -2.309062 0.000000 0.000000 2.309062 0.000000 0.000000 -0.000000 0.000000 0.000000 -0.000000 90.000000 0.000000 -2.309062 0.000000 0.000000 2.309062 0.000000 0.000000 8.520406 0.000000 0.000000 1.905762 0.000000 -0.000000 -4.658285 0.000000 0.000000 -0.000000 0.000000 0.000000 8.520406 0.000000 0.000000 1.905762 0.000000 -0.000000 -4.658285 0.000000 0.000000 -0.000000 0.000000
-54.191386 54.968111 47.089806 -179.027942 -31.600023 -10.558536 0.143276 13.802898 5.308228 -0.020358 7.941175 2.106749 0.031576 9.939527 2.640126 -0.030366 7.927017 2.107777 3.876068 19.440222 0.575094 3.990129 -5.118105 -0.267082 -2.464639 0.972289 -5.082818 -15.079704 -6.387470 9.132557 -46.170293 -68.649072 56.416147 7.268921 -3.018548 -11.980415 -8.459980 2.741251 -2.369634 9.849903 -0.583258 -1.446371 109.752220 -77.436835 -107.875562 20.657150 -9.484158 12.864231 -16.129737 -36.261650 3.660692 1.595417 86.650035 -1.542480 2.268662 -15.897614 2.302848 -0.040600 0.444209 -0.029548 -14.759377 -46.536622 16.031259 170.042767 79.588168 164.589453 -1.963976 -16.084051 2.184515 -0.730348 -2.234400 -0.313978
-54.190744 54.970414 47.089914 -179.034395 -31.590900 -10.556085 0.156770 13.805549 5.313722 -0.017484 7.942932 2.106840 0.024500 9.928465 2.639536 -0.017479 7.942985 2.106799 3.872291 19.436609 0.582203 3.994687 -5.108540 -0.262013 -2.510030 0.971216 -5.090266 -15.052527 -6.401102 9.149954 -46.351660 -68.538952 56.607971 7.244150 -3.015999 -11.993389 -8.493626 2.743146 -2.373120 9.831730 -0.582904 -1.509358 109.904362 -77.364144 -108.071811 20.668589 -9.386343 12.822045 -16.126715 -36.270527 3.667339 1.503480 86.649874 -1.635173 2.277059 -15.895039 2.304766 -0.070895 0.441476 -0.029060 -14.757803 -46.545181 16.037935 170.032766 79.588352 164.578050 -1.966242 -16.080415 2.184669 -0.733443 -2.237309 -0.315027
-54.191349 54.973132 47.090052 -179.035265 -31.579742 -10.549849 0.156706 13.803976 5.309506 -0.015139 7.959235 2.108373 0.027782 9.916352 2.637143 -0.014946 7.944938 2.106342 3.874679 19.435164 0.588845 3.999985 -5.100566 -0.257489 -2.535047 0.963060 -5.094497 -15.038112 -6.388752 9.164079 -46.556568 -68.451968 56.829824 7.220759 -3.052771 -12.040506 -8.520459 2.750057 -2.387423 9.849564 -0.605489 -1.515661 109.789027 -77.203850 -108.046814 20.683930 -9.290871 12.804779 -16.127460 -36.281532 3.668666 1.555500 86.649096 -1.590823 2.283544 -15.895030 2.307772 -0.086853 0.440387 -0.029331 -14.747963 -46.553853 16.035088 170.050318 79.594753 164.593935 -1.975629 -16.082734 2.189788 -0.729229 -2.232181 -0.313664
-54.191567 54.976704 47.090075 -179.036272 -31.570272 -10.547613 0.157728 13.807387 5.311334 -0.019485 7.960528 2.107052 0.025862 9.935393 2.637872 -0.016326 7.948630 2.105439 3.895170 19.422283 0.591357 4.013798 -5.094737 -0.252520 -2.544592 0.933753 -5.105063 -15.037996 -6.364523 9.179350 -46.770699 -68.384877 57.077454 7.200571 -3.120042 -12.088811 -8.519521 2.720753 -2.397404 9.858049 -0.614004 -1.511988 109.596595 -76.993236 -107.954774 20.705869 -9.190360 12.803304 -16.131173 -36.288427 3.670851 1.630220 86.645838 -1.524193 2.309945 -15.894244 2.304571 -0.055101 0.440448 -0.028259 -14.745514 -46.560465 16.034416 170.059377 79.600033 164.603719 -1.977224 -16.081580 2.189095 -0.727140 -2.231223 -0.313638
-54.191785 54.981234 47.089594 -179.034921 -31.565178 -10.549093 0.153052 13.814206 5.313191 -0.020117 7.963419 2.106967 0.023706 9.937760 2.638342 -0.018073 7.950505 2.105868 3.913687 19.420279 0.593615 4.046867 -5.093051 -0.245192 -2.544443 0.918985 -5.113728 -15.038757 -6.349317 9.194384 -46.971626 -68.329730 57.294502 7.184242 -3.205572 -12.111117 -8.517257 2.706328 -2.407980 9.877656 -0.621798 -1.527156 109.389657 -76.782239 -107.861935 20.734142 -9.080140 12.800216 -16.127902 -36.288332 3.674704 1.596924 86.640477 -1.554302 2.296143 -15.893463 2.311108 -0.070518 0.441013 -0.029460 -14.747271 -46.560708 16.035045 170.077193 79.605935 164.622068 -1.975524 -16.080906 2.186889 -0.725951 -2.230539 -0.313921
-54.192438 54.985702 47.089943 -179.036990 -31.555725 -10.548932 0.151912 13.829100 5.316223 -0.020091 7.952207 2.106089 0.021144 9.939950 2.638629 -0.020077 7.952221 2.106117 3.932627 19.416943 0.601231 4.050539 -5.102083 -0.250321 -2.544028 0.904718 -5.121730 -15.037757 -6.328225 9.211418 -47.200726 -68.290747 57.533816 7.171525 -3.293813 -12.095587 -8.518640 2.689278 -2.416578 9.906658 -0.620487 -1.546799 109.221773 -76.575630 -107.808035 20.762237 -8.960346 12.784102 -16.124988 -36.294050 3.675051 1.635140 86.634774 -1.514448 2.308494 -15.890563 2.310726 -0.084160 0.440343 -0.029547 -14.749985 -46.564871 16.037279 170.079518 79.612551 164.623695 -1.974213 -16.083238 2.186006 -0.725394 -2.227182 -0.314104
-54.193411 54.990099 47.091059 -179.038297 -31.541577 -10.550362 0.151134 13.820338 5.319216 -0.021044 7.956181 2.106787 0.019470 9.944500 2.640241 -0.021355 7.953145 2.106383 3.949187 19.411526 0.607451 4.073829 -5.107998 -0.248029 -2.554315 0.896816 -5.133488 -15.027698 -6.313473 9.231369 -47.470061 -68.252946 57.805524 7.161943 -3.372429 -12.034784 -8.524427 2.670496 -2.424412 9.927539 -0.620843 -1.565400 109.072996 -76.384465 -107.753719 20.783003 -8.833421 12.747750 -16.128543 -36.303728 3.678180 1.694086 86.628344 -1.459005 2.334954 -15.886289 2.309117 -0.055371 0.439691 -0.029503 -14.762034 -46.576891 16.043204 170.068373 79.614978 164.610574 -1.967190 -16.072709 2.187374 -0.729920 -2.235245 -0.319061
-54.196298 54.994250 47.092513 -179.041265 -31.524961 -10.542522 0.150028 13.809034 5.314294 -0.023316 7.963485 2.109899 0.019124 9.943608 2.641430 -0.020862 7.948123 2.102819 3.987723 19.429568 0.635970 4.071112 -5.123803 -0.252876 -2.575114 0.906986 -5.140596 -15.020798 -6.304512 9.260947 -47.753548 -68.221810 58.096189 7.151219 -3.438852 -11.929514 -8.524870 2.657588 -2.427012 9.930421 -0.618735 -1.585359 108.964308 -76.214327 -107.716381 20.800038 -8.694450 12.676793 -16.120444 -36.320439 3.677491 1.634910 86.624722 -1.513564 2.298140 -15.880247 2.326590 -0.055601 0.438863 -0.032260 -14.760259 -46.589492 16.035730 170.111058 79.626894 164.652669 -1.963666 -16.072778 2.188242 -0.725952 -2.230463 -0.319807
-54.198890 54.998526 47.094347 -179.048709 -31.507115 -10.537357 0.148566 13.818919 5.319491 -0.021580 7.950385 2.109007 0.020027 9.936097 2.639681 -0.019171 7.946536 2.100698 3.997867 19.430459 0.640497 4.100099 -5.112911 -0.244185 -2.590073 0.910215 -5.146860 -15.034947 -6.283853 9.296413 -48.034144 -68.190115 58.396160 7.130901 -3.496104 -11.794552 -8.520986 2.646996 -2.429490 9.928426 -0.624053 -1.610721 108.852219 -76.076600 -107.660385 20.829322 -8.548978 12.555747 -16.117671 -36.336361 3.678139 1.644759 86.616761 -1.503698 2.301431 -15.876184 2.331697 -0.057128 0.439594 -0.034938 -14.761531 -46.603733 16.036077 170.120458 79.634938 164.661756 -1.960960 -16.070355 2.186588 -0.729996 -2.228517 -0.319986
-54.201946 55.003299 47.095615 -179.056268 -31.493770 -10.532514 0.148290 13.817108 5.322850 -0.020488 7.946069 2.108283 0.017307 9.933569 2.644607 -0.018314 7.947564 2.100148 4.008947 19.431219 0.638269 4.188655 -5.076343 -0.221573 -2.607294 0.917215 -5.159889 -15.052838 -6.277681 9.331018 -48.334354 -68.132573 58.719163 7.093925 -3.544221 -11.649322 -8.516019 2.638463 -2.439145 9.928580 -0.647230 -1.665863 108.678930 -75.989305 -107.539445 20.888279 -8.432468 12.371128 -16.119281 -36.347706 3.684444 1.624624 86.611181 -1.525172 2.277671 -15.868973 2.333732 -0.049786 0.438346 -0.029489 -14.760257 -46.612293 16.036974 170.146404 79.644241 164.685191 -1.959949 -16.069886 2.188098 -0.728052 -2.226021 -0.319868
-54.204124 55.008569 47.096673 -179.064816 -31.483713 -10.535403 0.150976 13.815185 5.335376 -0.023108 7.941491 2.109797 0.016011 9.932298 2.647109 -0.015543 7.948859 2.099818 4.035192 19.440056 0.645534 4.224640 -5.060649 -0.220013 -2.625023 0.924933 -5.173206 -15.078174 -6.275526 9.365480 -48.683350 -68.037272 59.096365 7.039627 -3.584703 -11.509759 -8.515106 2.625199 -2.447262 9.929261 -0.656291 -1.691568 108.415268 -75.864865 -107.331024 20.979520 -8.369846 12.121106 -16.127712 -36.351593 3.698806 1.638071 86.599361 -1.516780 2.270886 -15.861624 2.334620 -0.074405 0.438652 -0.027280 -14.764902 -46.618034 16.047198 170.133167 79.648011 164.674227 -1.966468 -16.065055 2.184583 -0.722239 -2.229168 -0.317881
-54.207208 55.013757 47.097719 -179.065366 -31.473628 -10.539403 0.145416 13.809354 5.341541 -0.028232 7.936471 2.113374 0.021965 9.933803 2.642122 -0.025176 7.943478 2.112252 4.069131 19.454445 0.651049 4.249785 -5.042703 -0.224086 -2.621812 0.934397 -5.191229 -15.094738 -6.273961 9.382078 -49.139774 -67.877376 59.563051 6.972219 -3.626049 -11.383835 -8.506166 2.605372 -2.455698 9.936861 -0.653174 -1.711283 108.056969 -75.703926 -107.042313 21.088519 -8.358320 11.828171 -16.136106 -36.354923 3.709517 1.586285 86.591292 -1.572333 2.256021 -15.855517 2.340971 -0.081847 0.438076 -0.026902 -14.774473 -46.626188 16.049765 170.052900 79.647900 164.597641 -1.974963 -16.051553 2.180135 -0.719394 -2.239392 -0.317599
